<svg class="img-fluid" id="outputsvg" xmlns="http://www.w3.org/2000/svg"  viewBox="0 0 17760 11320">
<g id="l6IH1pnswDXMX6Y59mxmXgO" fill="#230a45" style="transform: none;"><g style="transform: none;">
<path id="p138Aa84Hs" d="M2745 11003 c-311 -43 -548 -291 -585 -610 -6 -57 -10 -1023 -10 -2704 l0 -2617 -80 48 c-164 98 -238 163 -374 324 -138 165 -235 376 -278 606 -7 35 -13 713 -18 1910 -7 1821 -7 1857 -27 1945 -81 354 -314 643 -673 833 -164 87 -176 80 -77 -44 159 -199 257 -396 297 -599 18 -92 30 -949 29 -2041 0 -595 3 -1119 6 -1165 4 -46 -1 -448 -10 -894 -23 -1101 -9 -1435 81 -1965 74 -437 189 -781 391 -1169 266 -509 667 -989 1125 -1345 388 -302 754 -510 1218 -696 444 -177 906 -286 1395 -330 207 -19 309 -20 1713 -20 820 0 1492 4 1492 8 0 8 -127 199 -155 232 -7 8 -37 62 -68 120 -176 334 -293 757 -353 1280 -22 187 -31 893 -15 1123 30 419 60 600 145 857 41 125 44 134 146 355 140 304 441 668 733 885 70 52 146 106 170 119 23 13 53 31 67 40 30 20 186 97 285 139 119 52 290 102 450 133 172 33 475 39 670 14 136 -18 389 -79 513 -124 243 -88 531 -267 727 -452 33 -31 77 -71 98 -89 63 -55 249 -305 351 -474 94 -155 139 -295 104 -323 -7 -6 -44 -22 -83 -37 -38 -15 -79 -31 -90 -36 -103 -44 -266 -102 -277 -98 -14 6 -32 39 -65 118 -43 105 -196 325 -326 469 -207 229 -480 388 -806 470 -316 80 -722 44 -1080 -96 -112 -43 -156 -65 -292 -144 -190 -110 -407 -315 -535 -505 -215 -321 -311 -624 -385 -1219 -30 -245 -37 -719 -15 -945 42 -414 122 -734 252 -1009 52 -109 163 -296 208 -349 189 -227 332 -351 541 -472 48 -28 88 -50 91 -50 2 0 37 -15 78 -34 99 -46 234 -88 386 -121 106 -23 156 -28 328 -32 264 -7 417 11 632 73 271 77 544 240 769 457 77 75 85 80 105 67 276 -173 823 -330 1151 -330 225 0 574 95 860 235 160 78 221 117 407 257 148 111 329 280 417 390 14 18 44 53 66 78 72 80 227 305 308 446 136 239 270 565 315 769 50 224 62 512 62 1480 0 824 7 1030 46 1385 21 188 56 357 103 489 60 168 120 260 209 317 29 19 55 34 58 34 3 0 19 9 35 21 54 38 222 99 333 120 146 28 353 22 491 -15 234 -63 454 -208 670 -442 215 -233 270 -292 278 -293 4 0 7 65 7 147 0 266 -46 466 -162 707 -84 174 -168 296 -306 444 -154 165 -265 250 -482 367 -134 73 -290 127 -460 159 -46 8 -89 20 -95 26 -6 6 -1 44 17 117 53 205 78 410 78 626 0 393 -76 709 -251 1045 -103 198 -174 294 -354 480 -327 338 -725 526 -1251 591 -212 27 -545 1 -787 -61 -654 -166 -1147 -600 -1332 -1174 -65 -201 -76 -296 -82 -697 l-5 -346 23 -12 c17 -10 146 -11 573 -5 304 4 559 11 569 16 15 9 17 31 17 242 0 259 8 328 46 406 43 91 166 205 284 266 19 10 68 26 110 36 209 52 400 27 589 -77 166 -91 257 -203 343 -420 175 -439 54 -1098 -299 -1626 -351 -525 -963 -902 -1663 -1023 -325 -56 -791 -59 -991 -6 -214 57 -388 164 -548 334 -100 107 -186 270 -245 467 -7 24 -12 628 -16 1855 l-5 1820 -23 65 c-71 196 -201 334 -387 412 -149 63 -129 61 -960 65 -540 3 -783 1 -840 -7 -170 -25 -356 -149 -462 -309 -106 -160 -134 -294 -134 -651 1 -304 -14 -531 -40 -634 -61 -243 -143 -431 -257 -583 -261 -352 -610 -548 -1061 -594 -132 -14 -346 -1 -475 27 -553 123 -971 488 -1136 993 -63 194 -80 345 -80 727 0 471 -24 590 -153 764 -50 66 -72 87 -162 147 -88 59 -197 98 -311 112 -85 10 -1497 14 -1569 4z"></path></g></g></svg>