<svg class="img-fluid" id="outputsvg" xmlns="http://www.w3.org/2000/svg" style="transform: none; transform-origin: 50% 50%; cursor: move; max-height: none;" width="1080" height="720" viewBox="0 0 10800 7200">
<g id="l67zweJXSzw2BBXlxdzBMO6" fill="rgb(221,1,241)" style="transform: none;"><g style="transform: none;">
<path id="pYbCayjy5" d="M5075 5679 c-2 -3 40 -57 93 -120 l97 -114 3 -533 4 -534 -39 6 c-21 3 -173 17 -338 32 l-300 26 -328 -17 c-181 -9 -330 -15 -333 -13 -8 8 -76 252 -76 273 0 11 43 153 96 315 l96 295 66 75 c37 41 113 128 171 193 l104 117 -449 0 -450 0 49 -132 c27 -73 49 -139 49 -147 0 -12 -238 -558 -277 -633 l-13 -28 -83 63 -82 63 -57 254 c-31 140 -57 269 -57 285 0 17 24 85 53 153 l54 122 -364 0 c-200 0 -364 -1 -364 -3 0 -2 52 -115 116 -253 l115 -249 66 -440 65 -440 80 -190 c44 -104 80 -197 80 -206 -1 -21 -160 -380 -178 -400 -9 -10 -10 -19 -4 -25 6 -6 21 -115 35 -244 23 -226 25 -234 52 -262 15 -17 202 -200 414 -409 l387 -379 573 -8 574 -8 264 -72 c208 -57 270 -78 296 -100 18 -15 66 -57 106 -93 320 -284 429 -379 437 -379 10 0 1202 476 1208 483 6 6 287 503 303 537 10 19 80 222 156 450 75 228 143 420 149 426 6 6 153 41 326 78 173 37 326 71 340 75 31 9 -59 17 -390 31 -129 6 -250 13 -269 16 l-34 5 7 257 c15 581 26 988 31 1167 l6 190 -130 145 c-71 80 -135 146 -143 148 -14 3 -21 -7 -80 -110 l-38 -68 55 -140 55 -141 -145 -362 -145 -361 -25 -346 c-14 -190 -26 -350 -28 -357 -2 -9 -213 -180 -519 -419 l-56 -44 -6 48 c-3 26 -8 118 -12 205 -3 86 -9 157 -13 157 -4 0 -78 -47 -166 -104 -88 -58 -162 -103 -164 -100 -2 2 -12 154 -22 336 l-18 333 230 407 229 407 14 241 c7 132 15 242 17 244 36 28 343 277 367 298 18 15 29 28 25 28 -4 0 -190 0 -413 1 l-405 2 -7 -232 -8 -233 -40 -131 c-23 -73 -46 -143 -51 -157 -11 -27 -165 -137 -177 -125 -4 3 -55 145 -113 313 l-106 307 25 45 c14 25 46 77 72 115 25 39 50 76 54 82 5 10 -76 13 -370 15 -207 2 -377 0 -379 -3z m-2041 -86 c-9 -21 -25 -60 -37 -88 -11 -27 -25 -56 -30 -63 -11 -14 -299 -224 -302 -220 -4 5 -185 400 -185 404 0 2 128 4 285 4 l285 0 -16 -37z m1236 32 c0 -12 -246 -280 -259 -282 -9 -2 -95 14 -191 35 l-175 39 -37 94 c-20 52 -37 100 -37 107 -1 9 75 12 349 12 193 0 350 -2 350 -5z m1431 -52 c-21 -32 -48 -76 -61 -98 l-23 -41 92 -268 c51 -148 90 -270 89 -272 -3 -3 -552 647 -601 712 l-19 24 281 0 280 0 -38 -57z m1158 53 c-39 -35 -283 -226 -288 -226 -6 0 -252 189 -281 216 -12 12 28 14 280 14 161 0 291 -2 289 -4z m-474 -149 c77 -60 145 -115 150 -122 10 -12 -4 -398 -15 -409 -3 -3 -73 63 -156 147 l-150 152 4 178 c3 131 7 175 15 170 7 -4 75 -56 152 -116z m1159 -131 c49 -56 91 -106 93 -111 1 -6 -36 -36 -82 -68 l-85 -58 -14 33 c-8 18 -29 71 -47 118 l-32 84 29 53 c15 29 33 53 39 52 5 0 50 -47 99 -103z m-1945 -299 l242 -289 -257 -174 c-141 -96 -258 -173 -260 -172 -2 2 -4 221 -6 486 l-3 482 21 -23 c12 -12 130 -152 263 -310z m-2578 102 c27 -118 48 -219 48 -226 1 -7 -80 47 -179 119 -99 72 -179 135 -177 141 4 14 240 186 251 183 5 -1 31 -99 57 -217z m808 176 c84 -19 156 -36 158 -39 3 -2 -32 -118 -78 -258 -45 -139 -83 -248 -85 -243 -2 6 -37 129 -79 275 -42 146 -78 273 -81 283 -7 22 -16 23 165 -18z m-76 -475 c70 -245 127 -449 127 -455 -1 -5 -33 -35 -73 -66 -40 -31 -268 -209 -507 -396 -239 -186 -440 -342 -446 -346 -7 -4 157 372 363 836 206 463 379 853 384 866 6 13 13 20 18 15 4 -5 65 -209 134 -454z m2654 128 l73 -73 -143 3 c-78 2 -158 7 -178 11 l-36 6 34 110 c18 61 35 116 38 123 6 16 92 -58 212 -180z m1246 30 c-2 -90 -5 -166 -6 -171 -1 -4 -37 45 -79 110 l-77 117 77 52 c42 29 80 53 84 53 3 1 4 -72 1 -161z m-4896 69 c32 -24 162 -120 288 -212 127 -92 231 -169 233 -170 4 -3 -308 -707 -318 -718 -10 -11 -146 318 -154 373 -4 25 -29 196 -57 380 -27 184 -52 347 -55 363 -3 15 -3 27 0 27 3 0 32 -20 63 -43z m4867 -334 c-11 -16 -386 -314 -391 -310 -1 2 45 122 103 268 59 145 110 275 116 288 8 23 15 15 95 -104 58 -88 83 -133 77 -142z m-1162 108 l37 -6 -209 -370 c-115 -203 -213 -371 -219 -373 -5 -2 -146 47 -312 108 -167 61 -324 118 -349 127 -25 9 -48 19 -52 22 -4 3 160 119 364 257 l371 250 166 -4 c91 -2 183 -7 203 -11z m1174 -473 c-10 -486 -19 -689 -27 -681 -5 5 -99 150 -210 323 l-201 315 29 22 c15 12 111 89 213 172 102 82 189 149 194 150 6 1 6 -122 2 -301z m-2937 -207 c98 -168 122 -215 110 -221 -8 -5 -275 -161 -594 -348 -319 -186 -581 -338 -583 -337 -4 4 297 1078 305 1086 8 7 512 38 593 35 l45 -1 124 -214z m522 162 l36 -8 -108 -379 c-59 -208 -110 -380 -112 -382 -2 -2 -37 84 -77 191 -63 168 -91 224 -197 406 -68 117 -123 215 -123 218 0 7 525 -35 581 -46z m404 -127 c253 -93 430 -159 433 -161 5 -4 41 -679 37 -683 -1 -1 -230 28 -509 65 -365 49 -506 71 -506 80 0 11 211 764 225 800 4 12 30 4 320 -101z m-1765 85 c0 -7 -216 -789 -275 -998 -15 -50 -16 -51 -43 -43 -15 4 -182 62 -371 128 l-345 119 110 86 c60 47 289 227 509 401 220 173 403 315 408 315 4 1 7 -3 7 -8z m3532 -353 c109 -171 197 -313 195 -314 -1 -2 -103 2 -226 9 l-223 11 5 61 c4 33 14 169 23 303 10 133 20 242 23 242 3 0 95 -141 203 -312z m-2463 -245 c46 -120 100 -263 122 -318 127 -327 207 -540 204 -543 -2 -2 -362 83 -800 189 -744 181 -795 195 -774 209 32 21 1153 678 1160 679 3 1 42 -97 88 -216z m2680 -124 c218 -11 397 -22 398 -23 2 -2 -23 -8 -54 -15 -140 -30 -648 -158 -976 -246 -198 -53 -360 -95 -362 -93 -2 2 110 92 248 200 250 196 252 198 301 198 27 0 228 -9 445 -21z m-1166 -241 c4 -95 10 -357 13 -583 l6 -410 -292 -377 -293 -377 -171 151 c-94 83 -214 190 -267 237 l-96 86 -8 358 c-4 197 -4 361 0 365 10 11 1089 721 1096 721 3 1 9 -77 12 -171z m-3273 -3 c179 -63 318 -116 310 -119 -25 -9 -616 -166 -627 -166 -5 0 -17 85 -27 193 -10 105 -20 198 -22 205 -5 16 -35 26 366 -113z m2398 53 c259 -34 472 -64 472 -67 0 -5 -701 -471 -720 -479 -4 -1 -51 113 -105 255 -53 142 -106 279 -116 306 -10 26 -15 47 -11 47 4 0 220 -27 480 -62z m1963 -265 c-54 -159 -115 -339 -136 -401 -23 -72 -42 -112 -49 -110 -30 7 -797 513 -784 517 54 18 1028 279 1045 280 21 1 17 -14 -76 -286z m-3967 25 c8 -55 47 -850 42 -856 -3 -2 -167 154 -366 348 -198 194 -358 356 -354 359 6 6 640 179 661 180 7 1 14 -14 17 -31z m915 -174 c421 -103 768 -188 770 -190 5 -4 -482 -539 -491 -539 -8 0 -1045 893 -1054 907 -3 4 -2 8 1 8 4 0 352 -84 774 -186z m-344 -265 c281 -242 519 -449 530 -461 l20 -20 -509 6 c-280 3 -510 7 -511 9 -2 1 -12 198 -24 437 -12 239 -23 443 -25 453 -2 9 -1 17 2 17 4 0 237 -198 517 -441z m3027 -44 c76 -49 136 -91 133 -93 -2 -2 -177 -47 -389 -101 -368 -92 -385 -95 -390 -76 -2 11 -5 172 -6 357 l-1 338 258 -168 c142 -92 320 -208 395 -257z m-1875 -571 c-3 -3 -92 18 -198 47 -107 28 -213 57 -237 63 l-43 11 233 258 233 258 9 -316 c4 -174 6 -318 3 -321z m2023 421 c0 -3 -38 -72 -84 -153 -46 -81 -101 -180 -122 -219 -22 -40 -42 -73 -47 -73 -11 0 -487 254 -487 260 0 4 702 185 733 189 4 1 7 -1 7 -4z m-558 -343 c130 -70 236 -131 236 -137 -1 -10 -1008 -418 -1015 -411 -7 6 519 676 530 676 7 -1 119 -58 249 -128z"></path></g></g></svg>