<svg class="img-fluid" id="outputsvg" xmlns="http://www.w3.org/2000/svg" style="transform: matrix(1, 0, 0, 1, 0, 0); transform-origin: 50% 50%; cursor: move; transition: transform 200ms ease-in-out 0s;" width="2524" height="492" viewBox="0 0 25240 4920"><g id="l2AxUVbRxxdDxvohbLj3alY" fill="rgb(255,0,131)" style="transform: none;"><g style="transform: none;"><path id="p4FkOHB7j" d="M842 4414 c-29 -14 -60 -37 -70 -51 -9 -13 -26 -36 -38 -51 -12 -15 -24 -45 -28 -67 -4 -22 -9 -501 -12 -1065 -3 -563 -7 -1026 -9 -1028 -9 -10 -94 50 -137 95 -60 65 -97 125 -122 198 -19 58 -20 91 -26 815 -7 820 -4 789 -66 891 -49 82 -168 181 -242 204 -21 6 -20 2 16 -52 56 -82 78 -123 98 -185 16 -49 18 -134 19 -1113 1 -731 5 -1088 13 -1151 39 -305 112 -508 263 -729 89 -130 160 -208 290 -319 253 -216 517 -342 889 -422 l125 -27 653 -4 654 -5 -43 64 c-141 208 -206 506 -196 898 6 238 24 356 73 483 146 381 474 621 849 621 131 0 230 -18 334 -62 201 -84 363 -236 460 -429 35 -70 31 -76 -64 -112 -47 -18 -89 -30 -94 -26 -6 3 -22 30 -36 60 -29 58 -144 196 -197 237 -81 62 -212 110 -333 122 -131 14 -323 -38 -445 -119 -76 -51 -187 -165 -226 -235 -117 -206 -157 -633 -92 -985 13 -69 76 -230 109 -278 93 -133 213 -229 364 -288 72 -29 94 -32 210 -36 72 -3 155 0 185 5 121 22 263 92 359 178 l52 47 49 -27 c69 -37 149 -64 263 -86 119 -24 155 -25 255 -5 183 37 362 139 505 289 160 167 290 415 317 604 5 37 10 247 10 467 0 440 13 626 50 735 40 120 69 155 160 198 50 24 67 26 175 27 117 0 122 -1 190 -34 55 -27 95 -59 182 -146 l112 -111 -5 75 c-8 107 -22 174 -50 238 -85 192 -265 343 -463 387 -34 8 -65 16 -67 18 -2 2 4 33 13 68 11 44 16 113 17 210 1 122 -3 159 -23 235 -13 50 -26 95 -30 100 -4 6 -14 26 -21 45 -37 95 -156 236 -265 315 -133 95 -278 136 -480 136 -136 0 -245 -24 -357 -81 -200 -101 -315 -233 -368 -421 -22 -80 -38 -289 -26 -352 l7 -37 178 0 c98 0 199 3 225 6 l46 7 0 77 c0 131 8 165 50 209 55 57 103 78 197 86 96 7 220 -61 263 -145 75 -147 76 -312 2 -500 -29 -72 -109 -207 -152 -257 -16 -17 -32 -38 -37 -45 -16 -27 -108 -100 -177 -141 -128 -78 -267 -123 -451 -148 -102 -13 -279 -7 -340 13 -70 22 -156 89 -202 157 -81 119 -77 77 -83 886 l-5 720 -23 37 c-28 46 -79 91 -129 115 -34 16 -70 18 -388 18 l-350 0 -40 -24 c-65 -39 -96 -73 -122 -131 -23 -49 -26 -75 -34 -245 -11 -253 -28 -315 -126 -453 -101 -142 -314 -235 -497 -217 -108 10 -151 22 -242 67 -66 32 -99 56 -152 112 -123 132 -161 247 -169 521 -4 119 -10 190 -20 212 -19 46 -79 110 -127 136 -40 21 -54 22 -386 25 l-345 3 -53 -27z"></path><path id="pjljfNfp8" d="M11030 3643 c-91 -10 -269 -43 -302 -57 -21 -9 -45 -16 -55 -16 -22 0 -216 -97 -277 -139 -72 -50 -214 -190 -272 -268 -145 -196 -224 -450 -224 -726 0 -421 165 -764 480 -993 66 -49 272 -154 301 -154 9 0 32 -7 52 -15 19 -8 88 -24 153 -36 309 -55 650 -5 899 133 97 54 104 58 160 102 239 188 387 449 430 761 41 294 -16 617 -148 830 -125 204 -282 349 -482 445 -135 65 -202 86 -375 115 -133 23 -243 28 -340 18z m330 -542 c201 -66 348 -199 421 -383 26 -66 59 -228 59 -289 0 -80 -40 -249 -76 -323 -105 -211 -257 -321 -514 -368 -69 -12 -231 -4 -290 15 -25 8 -65 20 -90 28 -53 16 -170 91 -222 143 -228 224 -263 634 -80 916 79 122 213 219 351 257 31 8 70 19 86 24 56 16 284 3 355 -20z"></path><path id="pkiU0pAZB" d="M21575 3629 c-156 -23 -250 -53 -381 -121 -328 -169 -549 -483 -605 -863 -15 -103 -12 -344 6 -451 99 -591 561 -973 1180 -977 369 -2 697 139 933 401 40 44 72 82 72 85 0 3 18 33 41 67 51 77 94 172 125 275 13 44 24 83 24 88 0 4 -125 7 -277 7 l-278 -1 -19 -42 c-76 -167 -206 -275 -406 -338 -104 -32 -293 -33 -391 -2 -153 49 -270 136 -354 263 -59 88 -89 170 -111 302 -18 104 -18 111 0 220 18 112 24 131 74 238 99 214 329 350 591 350 111 0 208 -23 321 -78 105 -50 221 -167 274 -274 l38 -78 280 0 280 0 -7 33 c-44 202 -153 403 -300 553 -184 187 -383 287 -675 339 -161 29 -258 30 -435 4z"></path><path id="p7jqy4CrJ" d="M7160 2430 l0 -1170 270 0 270 0 -2 1168 -3 1167 -267 3 -268 2 0 -1170z"></path><path id="p9MqJePp1" d="M8594 3583 c-3 -10 -14 -38 -24 -63 -10 -25 -32 -81 -48 -125 -17 -44 -48 -127 -71 -185 -22 -58 -72 -188 -111 -290 -39 -102 -75 -194 -80 -205 -5 -11 -16 -40 -24 -65 -8 -25 -21 -58 -30 -75 -9 -16 -16 -36 -16 -42 0 -7 -9 -32 -19 -55 -11 -24 -36 -88 -57 -143 -20 -55 -61 -163 -91 -240 -30 -77 -64 -165 -75 -195 -11 -30 -29 -73 -39 -96 -11 -23 -19 -46 -19 -52 0 -6 -9 -31 -20 -54 -10 -24 -36 -88 -55 -143 -20 -55 -52 -139 -71 -187 -20 -48 -33 -92 -29 -98 4 -6 105 -10 289 -10 l282 0 42 108 c23 60 42 112 42 116 0 5 7 22 15 39 8 18 21 52 29 77 8 25 35 99 61 165 26 66 66 174 90 240 24 66 55 149 70 185 15 36 31 76 35 90 12 35 48 130 110 295 29 77 61 163 70 190 11 31 20 44 24 35 41 -110 176 -473 196 -530 15 -41 43 -118 63 -170 63 -168 88 -234 112 -300 13 -36 32 -87 43 -115 11 -27 47 -126 82 -220 34 -93 66 -178 71 -188 9 -16 33 -17 294 -17 245 0 285 2 285 15 0 8 -23 72 -50 142 -28 71 -64 162 -80 203 -79 205 -135 351 -155 405 -29 77 -82 216 -107 280 -11 28 -28 73 -38 100 -10 28 -37 97 -60 155 -23 58 -61 157 -84 220 -24 63 -60 156 -79 205 -19 50 -54 140 -77 200 -23 61 -58 151 -77 200 -19 50 -38 99 -44 110 -5 11 -15 38 -22 60 l-14 40 -267 3 c-247 2 -267 1 -272 -15z"></path><path id="pZNfgEQYD" d="M12515 3588 c-3 -7 -4 -533 -3 -1168 l3 -1155 525 -3 c563 -3 659 3 810 50 309 98 498 327 529 644 16 161 -1 311 -52 450 -44 120 -194 288 -316 353 -60 32 -62 33 -47 54 15 20 47 74 121 201 17 28 43 71 58 96 15 25 53 88 83 140 31 52 66 111 78 130 34 52 126 210 126 215 0 3 -141 5 -312 5 l-313 0 -34 -58 c-18 -31 -112 -195 -209 -365 l-175 -307 -166 2 -166 3 -2 360 -2 360 -266 3 c-207 2 -267 0 -270 -10z m1057 -1187 c171 -40 268 -159 268 -328 0 -144 -81 -264 -211 -314 -61 -23 -76 -24 -326 -27 l-263 -3 0 345 0 346 228 0 c184 -1 242 -4 304 -19z"></path><path id="pgHSLdV4M" d="M15170 3191 l0 -409 -90 -157 c-49 -86 -90 -159 -90 -161 0 -3 -11 -21 -24 -42 -13 -20 -64 -109 -114 -197 -49 -88 -99 -176 -110 -195 -10 -19 -28 -51 -39 -70 -46 -80 -236 -415 -307 -542 -42 -75 -76 -142 -76 -148 0 -7 93 -9 306 -8 l306 3 42 80 c121 230 173 326 208 388 21 38 38 70 38 72 0 2 14 27 30 55 17 28 46 81 66 118 66 123 128 232 129 229 1 -1 51 -92 110 -202 59 -110 120 -222 135 -250 27 -49 63 -116 178 -335 30 -58 64 -117 74 -133 l19 -27 300 0 c216 0 299 3 299 11 0 7 -40 82 -89 168 -48 86 -148 262 -221 391 -73 129 -149 264 -170 300 -80 139 -199 348 -233 410 -20 36 -58 106 -86 155 l-51 90 0 408 0 407 -270 0 -270 0 0 -409z"></path><path id="pTNpNiAQ3" d="M17630 2685 l0 -915 -370 0 -370 0 2 -252 3 -253 1008 -3 1007 -2 0 255 0 255 -370 0 -370 0 0 915 0 915 -270 0 -270 0 0 -915z"></path><path id="pBJyFU8Lw" d="M18980 2443 c0 -637 4 -1164 8 -1171 7 -10 168 -12 773 -10 l764 3 3 228 2 227 -500 0 -500 0 -5 23 c-3 12 -4 117 -3 232 l3 210 458 3 457 2 0 225 0 225 -455 0 -455 0 -5 23 c-3 12 -4 123 -3 247 l3 225 520 5 c286 3 519 8 518 13 -2 4 -3 106 -3 227 l0 220 -790 0 -790 0 0 -1157z"></path><path id="psyXTZCuq" d="M23102 2433 l3 -1168 270 0 270 0 0 448 0 447 448 0 447 0 0 -450 0 -450 272 2 272 3 1 1155 c0 635 -1 1161 -3 1168 -3 9 -67 12 -273 12 l-269 0 0 -470 0 -470 -447 0 -448 0 0 467 0 468 -273 3 -272 2 2 -1167z"></path></g></g></svg>