<svg class="img-fluid" id="outputsvg" xmlns="http://www.w3.org/2000/svg" style="transform: none; transform-origin: 50% 50%; cursor: move;" width="119" height="120" viewBox="0 0 2190 2200"><g id="l1QM4qEEXImjeeYuUIT21nM" fill="white" style="transform: none;"><g style="transform: none;"><path id="p119tCiFV0" d="M1005 2164 c-73 -18 -75 -21 -75 -96 0 -39 15 -146 34 -241 19 -95 37 -200 40 -234 6 -56 5 -63 -11 -63 -31 0 -263 74 -263 84 0 24 76 249 107 318 40 87 38 98 -24 119 -40 13 -159 7 -175 -9 -5 -5 -25 -66 -44 -136 -35 -130 -66 -206 -85 -206 -21 0 -180 112 -213 152 -44 51 -45 73 -6 127 17 22 31 51 33 63 2 19 -5 25 -43 35 -58 15 -168 16 -209 2 -31 -11 -31 -12 -31 -78 0 -118 37 -208 159 -391 39 -58 71 -113 71 -122 0 -10 -12 -52 -26 -95 -16 -51 -24 -91 -21 -115 6 -47 -12 -51 -43 -10 -27 33 -23 89 8 153 12 24 20 44 18 46 -2 2 -17 -8 -35 -22 -84 -71 -51 -223 87 -397 123 -155 267 -236 450 -253 58 -6 72 -10 72 -24 0 -9 -5 -22 -12 -29 -30 -30 66 -84 214 -121 148 -37 157 -41 222 -100 37 -33 68 -52 93 -57 51 -10 229 12 300 37 114 39 161 49 193 37 37 -12 50 -35 50 -83 0 -51 -38 -83 -138 -118 -85 -29 -126 -63 -138 -114 -4 -13 -1 -58 6 -99 11 -62 16 -74 29 -68 57 24 95 33 117 28 34 -9 23 17 -22 51 -58 44 -46 61 83 125 61 30 123 66 137 79 70 66 75 260 9 333 -14 16 -13 18 11 29 22 10 36 9 79 -5 83 -28 84 -28 47 -8 -19 11 -60 25 -90 32 -30 7 -68 19 -84 27 -27 14 -28 16 -11 25 34 20 140 3 219 -35 78 -37 92 -29 30 18 -67 51 -98 59 -274 65 -186 6 -227 18 -222 60 1 14 18 39 36 57 19 18 40 42 47 54 10 20 9 21 -7 15 -11 -4 -58 -10 -107 -13 -71 -5 -95 -3 -126 12 -37 16 -40 21 -50 79 -24 136 -11 295 34 448 14 45 45 152 70 237 29 98 57 169 75 197 49 70 38 107 -37 125 -43 10 -142 -5 -185 -27 -25 -13 -28 -19 -22 -48 3 -19 0 -60 -6 -92 -15 -75 -80 -236 -94 -231 -20 7 -69 171 -74 249 -4 66 -1 83 17 119 26 49 23 62 -19 84 -31 16 -139 28 -175 19z"></path></g></g></svg>